<?xml version="1.0" standalone="no"?>
<!DOCTYPE svg PUBLIC "-//W3C//DTD SVG 20010904//EN"
 "http://www.w3.org/TR/2001/REC-SVG-20010904/DTD/svg10.dtd">
<svg version="1.0" xmlns="http://www.w3.org/2000/svg"
 width="1024.000000pt" height="1024.000000pt" viewBox="0 0 1024.000000 1024.000000"
 preserveAspectRatio="xMidYMid meet">

<g transform="translate(0.000000,1024.000000) scale(0.100000,-0.100000)"
fill="#00a3e4" stroke="none">
<path d="M5525 8089 c-387 -37 -721 -185 -993 -441 -203 -192 -354 -398 -431
-591 -13 -32 -21 -60 -19 -62 3 -3 56 -2 119 1 l114 7 47 76 c80 132 168 242
287 362 267 267 560 425 936 505 161 34 456 44 584 20 46 -9 86 -15 88 -13 6
6 -106 54 -192 82 -151 49 -365 70 -540 54z"/>
<path d="M5805 7764 c-279 -41 -517 -128 -725 -264 -104 -68 -263 -203 -337
-284 -74 -81 -187 -237 -239 -330 l-49 -86 -83 0 c-359 0 -576 -162 -697 -518
l-32 -96 -189 -130 c-181 -124 -383 -271 -582 -426 -119 -92 -151 -154 -125
-249 6 -23 7 -24 97 -18 50 4 113 13 140 21 l49 15 -34 -35 c-43 -44 -144 -95
-203 -101 -38 -5 -45 -9 -49 -32 -3 -14 -3 -46 0 -71 l5 -45 140 2 c160 2 228
17 338 70 41 21 80 39 85 41 6 2 -19 -24 -55 -58 -107 -100 -230 -150 -372
-150 -96 0 -99 -9 -25 -76 116 -105 266 -139 427 -96 41 11 83 23 92 27 14 6
22 -4 43 -51 37 -83 46 -135 47 -250 0 -121 -22 -243 -64 -362 -39 -110 -64
-161 -133 -261 -30 -45 -51 -81 -47 -81 35 2 218 77 283 116 210 126 403 374
484 624 23 69 29 109 33 212 l4 128 27 -6 c90 -22 219 -132 267 -229 28 -59
29 -63 29 -215 0 -132 -6 -183 -34 -340 -38 -211 -55 -503 -39 -670 27 -281
121 -556 261 -758 27 -40 51 -71 53 -69 2 2 0 26 -5 54 -6 27 -13 106 -17 174
-15 278 54 586 188 838 150 284 330 472 643 672 171 109 226 150 296 221 81
82 147 186 182 287 27 76 30 98 29 196 0 75 -7 134 -20 186 -40 151 -147 342
-280 499 l-55 65 145 7 c229 10 400 63 551 172 103 73 210 203 259 313 21 48
71 223 65 229 -2 2 -22 -5 -44 -16 -51 -24 -178 -67 -258 -85 -33 -8 -186 -30
-340 -50 -280 -36 -392 -57 -495 -93 l-56 -19 -30 26 c-17 14 -70 59 -118 99
-100 85 -98 69 -28 211 121 249 344 467 578 565 156 65 230 80 394 80 257 -1
461 -75 642 -233 308 -267 418 -643 312 -1070 -33 -133 -121 -310 -197 -397
-21 -24 -36 -44 -32 -44 14 0 123 75 165 114 212 193 340 488 340 786 0 353
-127 655 -385 916 -192 195 -416 315 -705 379 -73 17 -440 30 -515 19z m-1240
-1524 c28 -4 43 -8 35 -9 -31 -2 -117 -72 -160 -130 -58 -78 -94 -96 -169 -86
-88 13 -147 10 -175 -9 -15 -9 -26 -14 -26 -11 0 20 66 130 94 159 71 70 253
110 401 86z"/>
<path d="M6260 5023 c0 -132 -20 -226 -74 -337 -79 -167 -202 -299 -387 -417
-344 -220 -371 -240 -505 -373 -297 -298 -427 -606 -428 -1016 -1 -285 64
-514 209 -739 44 -70 160 -211 173 -211 4 0 7 64 7 143 0 163 16 240 76 380
119 279 306 467 619 622 227 112 253 126 320 176 108 79 266 256 246 276 -3 4
-68 1 -144 -5 -474 -40 -861 -234 -1089 -547 -20 -27 -19 -23 7 52 60 171 148
311 265 422 135 128 269 205 512 294 173 64 253 109 343 194 93 87 140 170
171 299 65 271 -51 627 -275 844 l-46 44 0 -101z"/>
</g>
</svg>
